<svg width="30" height="20" viewBox="0 0 30 20" fill="none" xmlns="http://www.w3.org/2000/svg">
<rect x="2" y="4" width="19" height="10" fill="white"/>
<path d="M4 1.53998C3.20435 1.53998 2.44129 1.85605 1.87868 2.41866C1.31607 2.98127 1 3.74433 1 4.53998V16.13C1 16.9256 1.31607 17.6887 1.87868 18.2513C2.44129 18.8139 3.20435 19.13 4 19.13H22.05C22.8456 19.13 23.6087 18.8139 24.1713 18.2513C24.7339 17.6887 25.05 16.9256 25.05 16.13V7.17998L29.82 1.53998H4ZM6.38 12.19C6.0141 12.19 5.65643 12.0815 5.3522 11.8782C5.04796 11.6749 4.81085 11.386 4.67082 11.0479C4.5308 10.7099 4.49416 10.3379 4.56555 9.97906C4.63693 9.6202 4.81313 9.29056 5.07185 9.03183C5.33058 8.7731 5.66022 8.59691 6.01908 8.52553C6.37795 8.45414 6.74992 8.49078 7.08796 8.6308C7.42601 8.77082 7.71494 9.00794 7.91822 9.31217C8.1215 9.6164 8.23 9.97408 8.23 10.34C8.23 10.8306 8.03509 11.3012 7.68815 11.6481C7.34121 11.9951 6.87065 12.19 6.38 12.19ZM12.86 12.19C12.4941 12.19 12.1364 12.0815 11.8322 11.8782C11.528 11.6749 11.2908 11.386 11.1508 11.0479C11.0108 10.7099 10.9742 10.3379 11.0455 9.97906C11.1169 9.6202 11.2931 9.29056 11.5519 9.03183C11.8106 8.7731 12.1402 8.59691 12.4991 8.52553C12.8579 8.45414 13.2299 8.49078 13.568 8.6308C13.906 8.77082 14.1949 9.00794 14.3982 9.31217C14.6015 9.6164 14.71 9.97408 14.71 10.34C14.71 10.8289 14.5165 11.2979 14.1717 11.6446C13.8269 11.9913 13.3589 12.1873 12.87 12.19H12.86ZM19.34 12.19C18.9741 12.19 18.6164 12.0815 18.3122 11.8782C18.008 11.6749 17.7708 11.386 17.6308 11.0479C17.4908 10.7099 17.4542 10.3379 17.5255 9.97906C17.5969 9.6202 17.7731 9.29056 18.0319 9.03183C18.2906 8.7731 18.6202 8.59691 18.9791 8.52553C19.3379 8.45414 19.7099 8.49078 20.048 8.6308C20.386 8.77082 20.6749 9.00794 20.8782 9.31217C21.0815 9.6164 21.19 9.97408 21.19 10.34C21.19 10.8289 20.9965 11.2979 20.6517 11.6446C20.3069 11.9913 19.8389 12.1873 19.35 12.19H19.34Z" fill="#85E8B0"/>
<path d="M29.83 1.53998L25.06 7.17998V16.13C25.06 16.9256 24.7439 17.6887 24.1813 18.2513C23.6187 18.8139 22.8556 19.13 22.06 19.13H19.36V1.53998H29.83Z" fill="#9747FF"/>
<path d="M3.18 0.859985C2.38435 0.859985 1.62129 1.17606 1.05868 1.73867C0.496069 2.30127 0.179998 3.06434 0.179998 3.85998V8.99998H2V3.86999C2.0013 3.7168 2.03292 3.56538 2.09306 3.42449C2.15319 3.28359 2.24063 3.156 2.35034 3.04908C2.46005 2.94216 2.58985 2.85802 2.73225 2.80154C2.87465 2.74506 3.02683 2.71734 3.18 2.71999H25L22.37 5.82999V15.45C22.37 15.7576 22.2478 16.0527 22.0302 16.2702C21.8127 16.4878 21.5176 16.61 21.21 16.61H3.18C3.02599 16.6126 2.873 16.5846 2.72994 16.5275C2.58689 16.4704 2.45664 16.3854 2.34679 16.2774C2.23695 16.1694 2.14971 16.0406 2.09017 15.8986C2.03063 15.7565 1.99998 15.604 2 15.45V11.45H0.169998V15.45C0.169998 16.2456 0.486069 17.0087 1.04868 17.5713C1.61129 18.1339 2.37435 18.45 3.17 18.45H21.24C22.0356 18.45 22.7987 18.1339 23.3613 17.5713C23.9239 17.0087 24.24 16.2456 24.24 15.45V6.49999L29 0.859985H3.18Z" fill="black"/>
<path d="M5.57 11.51C6.59173 11.51 7.42 10.6817 7.42 9.66C7.42 8.63827 6.59173 7.81 5.57 7.81C4.54827 7.81 3.72 8.63827 3.72 9.66C3.72 10.6817 4.54827 11.51 5.57 11.51Z" fill="black"/>
<path d="M12.05 11.51C13.0717 11.51 13.9 10.6817 13.9 9.66C13.9 8.63827 13.0717 7.81 12.05 7.81C11.0283 7.81 10.2 8.63827 10.2 9.66C10.2 10.6817 11.0283 11.51 12.05 11.51Z" fill="black"/>
<path d="M18.53 11.51C19.5517 11.51 20.38 10.6817 20.38 9.66C20.38 8.63827 19.5517 7.81 18.53 7.81C17.5083 7.81 16.68 8.63827 16.68 9.66C16.68 10.6817 17.5083 11.51 18.53 11.51Z" fill="black"/>
</svg>
